<svg width="217" height="88" viewBox="0 0 217 88" fill="none" xmlns="http://www.w3.org/2000/svg">
<path d="M31.5406 0C27.4993 0 23.4973 1.13822 19.7635 3.34928C16.0297 5.56059 12.6372 8.80151 9.77936 12.8872C6.92168 16.9732 4.65488 21.8235 3.10822 27.1618C1.56173 32.5002 0.765625 38.2219 0.765625 44C0.765625 49.7781 1.56173 55.4998 3.10822 60.8382C4.65488 66.1765 6.92168 71.0268 9.77936 75.1128C12.6372 79.1985 16.0297 82.4394 19.7635 84.6507C23.4973 86.8618 27.4993 88 31.5406 88V66C29.5199 66 27.519 65.431 25.6521 64.3252C23.7852 63.2197 22.0888 61.5992 20.66 59.5564C19.2312 57.5135 18.0978 55.0883 17.3245 52.4191C16.5511 49.7499 16.1531 46.8892 16.1531 44C16.1531 41.1108 16.5511 38.2501 17.3245 35.5809C18.0978 32.9118 19.2312 30.4865 20.66 28.4436C22.0888 26.4008 23.7852 24.7803 25.6521 23.6748C27.519 22.569 29.5199 22 31.5406 22V0Z" fill="#0F52FF"/>
<path d="M31.5406 58.6666C37.2061 58.6666 41.799 52.1001 41.799 44C41.799 35.8998 37.2061 29.3333 31.5406 29.3333C25.8751 29.3333 21.2823 35.8998 21.2823 44C21.2823 52.1001 25.8751 58.6666 31.5406 58.6666Z" fill="#0F52FF"/>
<path d="M0.765625 44C0.765625 49.7781 1.56173 55.4998 3.10822 60.8382C4.65488 66.1765 6.92168 71.0268 9.77936 75.1128C12.6372 79.1985 16.0297 82.4394 19.7635 84.6507C23.4973 86.8618 27.4993 88 31.5406 88C35.582 88 39.584 86.8618 43.3178 84.6507C47.0516 82.4394 50.4441 79.1985 53.3019 75.1128C56.1596 71.0268 58.4264 66.1765 59.9731 60.8382C61.5196 55.4998 62.3157 49.7781 62.3157 44H46.9282C46.9282 46.8892 46.5302 49.7499 45.7568 52.4191C44.9835 55.0883 43.8501 57.5135 42.4213 59.5564C40.9924 61.5992 39.2961 63.2197 37.4292 64.3252C35.5623 65.431 33.5614 66 31.5406 66C29.5199 66 27.519 65.431 25.6521 64.3252C23.7852 63.2197 22.0888 61.5992 20.66 59.5564C19.2312 57.5135 18.0978 55.0883 17.3245 52.4191C16.5511 49.7499 16.1531 46.8892 16.1531 44H0.765625Z" fill="#5BD0F4"/>
<path d="M41.799 44.0001C41.799 40.1103 40.7182 36.3798 38.7945 33.6292C36.8706 30.8786 34.2614 29.3333 31.5408 29.3333C28.8201 29.3333 26.2109 30.8786 24.287 33.6292C22.3631 36.3798 21.2823 40.1103 21.2823 44.0001H31.5408H41.799Z" fill="#5BD0F4"/>
<path d="M78.3881 27.4685H74.5659V57.8285H78.3881V27.4685Z" fill="#0F52FF"/>
<path d="M80.8842 47.0732C80.8842 54.0994 84.2817 58.4365 88.7714 58.4365C93.261 58.4365 96.6586 54.0994 96.6586 47.0732C96.6586 40.047 93.261 35.7099 88.7714 35.7099C84.2817 35.7099 80.8842 40.047 80.8842 47.0732ZM84.7064 47.0732C84.7064 42.9096 86.4052 40.4808 88.7714 40.4808C91.1375 40.4808 92.8363 42.9096 92.8363 47.0732C92.8363 51.2369 91.1375 53.6657 88.7714 53.6657C86.4052 53.6657 84.7064 51.2369 84.7064 47.0732Z" fill="#0F52FF"/>
<path d="M110.317 36.3171V39.2229H110.014C109.104 37.358 107.648 35.7099 105.039 35.7099C101.459 35.7099 98.2439 40.047 98.2439 46.7262C98.2439 53.4054 101.459 57.7426 105.039 57.7426C107.648 57.7426 109.104 56.051 109.953 54.3596H110.257V56.4415C110.257 60.6051 108.558 62.5134 106.07 62.5134C103.583 62.5134 102.309 60.6051 101.793 58.1328L98.3652 60.2581C99.154 63.5109 101.459 67.1108 106.131 67.1108C110.924 67.1108 114.079 63.5109 114.079 56.5714V36.3171H110.317ZM106.192 53.0585C103.826 53.0585 102.066 50.6297 102.066 46.7262C102.066 42.8228 103.826 40.394 106.192 40.394C108.558 40.394 110.317 42.8228 110.317 46.7262C110.317 50.6297 108.558 53.0585 106.192 53.0585Z" fill="#0F52FF"/>
<path d="M116.552 47.0732C116.552 54.0994 119.95 58.4365 124.439 58.4365C128.929 58.4365 132.326 54.0994 132.326 47.0732C132.326 40.047 128.929 35.7099 124.439 35.7099C119.95 35.7099 116.552 40.047 116.552 47.0732ZM120.374 47.0732C120.374 42.9096 122.073 40.4808 124.439 40.4808C126.805 40.4808 128.504 42.9096 128.504 47.0732C128.504 51.2369 126.805 53.6657 124.439 53.6657C122.073 53.6657 120.374 51.2369 120.374 47.0732Z" fill="#0F52FF"/>
<path d="M135.327 30.0707C135.327 32.2828 136.51 33.8007 138.028 33.8007C139.544 33.8007 140.727 32.2828 140.727 30.0707C140.727 27.8589 139.544 26.3408 138.028 26.3408C136.51 26.3408 135.327 27.8589 135.327 30.0707ZM139.938 36.3162H136.116V57.8284H139.938V36.3162Z" fill="#5BD0F4"/>
<path d="M143.344 66.5036H147.167V55.0536H147.469C148.319 56.7884 149.775 58.4365 152.384 58.4365C155.963 58.4365 159.179 54.0994 159.179 47.0732C159.179 40.047 155.963 35.7099 152.384 35.7099C149.775 35.7099 148.319 37.358 147.409 39.2231H147.105V36.3171H143.344V66.5036ZM151.231 53.7524C148.865 53.7524 147.105 51.3236 147.105 47.0732C147.105 42.8228 148.865 40.394 151.231 40.394C153.598 40.394 155.356 42.8228 155.356 47.0732C155.356 51.3236 153.598 53.7524 151.231 53.7524Z" fill="#5BD0F4"/>
<path d="M161.41 42.3459C161.41 46.5963 163.896 48.1576 167.051 49.0251L167.841 49.2418C169.721 49.7622 170.57 50.4129 170.57 51.8008C170.57 53.1887 169.721 54.2729 167.962 54.2729C166.202 54.2729 164.777 53.232 164.382 50.1092L160.863 51.4104C161.38 55.921 164.018 58.4365 167.962 58.4365C171.784 58.4365 174.272 55.8777 174.272 51.3671C174.272 46.8562 171.724 45.6421 168.326 44.6879L167.537 44.4709C165.959 44.0372 165.11 43.43 165.11 41.9989C165.11 40.6977 165.899 39.8736 167.355 39.8736C168.812 39.8736 169.842 40.741 170.206 43.083L173.665 41.5652C172.937 38.0955 170.723 35.7099 167.355 35.7099C163.775 35.7099 161.41 38.0955 161.41 42.3459Z" fill="#5BD0F4"/>
<path d="M191.44 57.8285V36.3163H187.619V47.4193C187.619 51.4095 186.254 53.7516 183.917 53.7516C181.854 53.7516 180.703 52.1469 180.703 48.894V36.3163H176.879V49.1542C176.879 54.489 179.217 58.1755 182.736 58.1755C185.495 58.1755 186.77 56.4406 187.376 54.619H187.679V57.8285H191.44Z" fill="#5BD0F4"/>
<path d="M194.831 36.3166V57.8288H198.654V44.9909C198.654 42.0416 199.625 40.3935 201.384 40.3935C202.901 40.3935 203.811 41.6079 203.811 43.95V57.8288H207.634V44.9909C207.634 42.0416 208.604 40.3935 210.363 40.3935C211.881 40.3935 212.79 41.6079 212.79 43.95V57.8288H216.613V43.6897C216.613 38.4852 214.367 35.9696 211.576 35.9696C209.12 35.9696 207.998 37.531 207.27 39.3526H206.965C206.267 37.3143 205.024 35.9696 202.84 35.9696C200.656 35.9696 199.472 37.3575 198.897 39.0056H198.593V36.3166H194.831Z" fill="#5BD0F4"/>
</svg>
