<svg width="264" height="88" viewBox="0 0 264 88" fill="none" xmlns="http://www.w3.org/2000/svg">
<path fill-rule="evenodd" clip-rule="evenodd" d="M130.864 9.59807C133.416 6.5364 137.555 6.5364 140.108 9.59807C142.661 12.66 142.661 17.6241 140.108 20.686L124.544 39.3532C120.076 32.1704 120.562 21.9548 126.001 15.4308L130.864 9.59807Z" fill="#4F9E91"/>
<path fill-rule="evenodd" clip-rule="evenodd" d="M153.112 51.7141C155.666 54.7758 155.666 59.7401 153.112 62.8018C150.561 65.8637 146.422 65.8637 143.869 62.8018L128.305 44.1348C134.294 38.7753 142.811 39.3573 148.25 45.8813L153.112 51.7141Z" fill="#EBE1C5"/>
<path fill-rule="evenodd" clip-rule="evenodd" d="M117.999 78.4012C115.446 81.4631 111.308 81.4631 108.755 78.4012C106.202 75.3394 106.202 70.3752 108.755 67.3133L124.318 48.6464C128.787 55.8292 128.301 66.0447 122.862 72.5685L117.999 78.4012Z" fill="#EBCC6E"/>
<path fill-rule="evenodd" clip-rule="evenodd" d="M95.7499 36.2838C93.1971 33.2219 93.1971 28.2578 95.7499 25.1959C98.3027 22.134 102.441 22.134 104.994 25.1959L120.558 43.8631C114.569 49.2226 106.052 48.6403 100.613 42.1166L95.7499 36.2838Z" fill="#ED834E"/>
<path fill-rule="evenodd" clip-rule="evenodd" d="M127.386 76.1148C131.15 71.095 132.899 64.6719 132.634 58.3477L140.108 67.3128C140.127 67.3351 140.145 67.3573 140.164 67.3796V73.7801C140.164 78.1101 137.238 81.6203 133.628 81.6203C130.695 81.6203 128.214 79.3046 127.386 76.1148Z" fill="#ED834E"/>
<path fill-rule="evenodd" clip-rule="evenodd" d="M97.6561 47.5426C101.841 52.0575 107.196 54.1559 112.469 53.8375L104.995 62.8026C104.976 62.8249 104.957 62.8474 104.939 62.8696H99.6026C95.9925 62.8699 93.0659 59.3594 93.0659 55.0294C93.0659 51.5126 94.9966 48.5363 97.6561 47.5426Z" fill="#4F9E91"/>
<path fill-rule="evenodd" clip-rule="evenodd" d="M151.207 40.4573C147.022 35.9424 141.667 33.844 136.394 34.1621L143.868 25.1973C143.887 25.175 143.906 25.1525 143.924 25.13H149.261C152.871 25.13 155.798 28.6405 155.798 32.9705C155.798 36.4876 153.866 39.4636 151.207 40.4573Z" fill="#EBCC6E"/>
<path fill-rule="evenodd" clip-rule="evenodd" d="M121.477 11.8843C117.713 16.9038 115.964 23.327 116.229 29.6513L108.755 20.6863C108.736 20.664 108.718 20.6417 108.699 20.6194V14.219C108.699 9.88893 111.625 6.37851 115.236 6.37851C118.168 6.37851 120.649 8.69445 121.477 11.8843Z" fill="#EBE1C5"/>
<path fill-rule="evenodd" clip-rule="evenodd" d="M115.236 0C108.688 0 103.381 6.36624 103.381 14.2193V16.9849C99.4417 15.7505 95.0763 16.9842 91.9896 20.6866C87.3599 26.2396 87.3599 35.2428 91.9896 40.7958L93.6199 42.7512C90.1069 45.2192 87.7476 49.7939 87.7476 55.0297C87.7476 62.8827 93.0553 69.249 99.6027 69.249H101.908C100.879 73.9735 101.908 79.2095 104.994 82.9116C109.624 88.4647 117.13 88.4647 121.76 82.9116L126.623 77.0791C130.913 71.9338 132.916 65.0846 132.633 58.3479L140.108 67.313C144.738 72.866 152.244 72.866 156.874 67.313C161.504 61.76 161.504 52.7568 156.874 47.204L155.244 45.2488C158.756 42.7808 161.116 38.2061 161.116 32.9703C161.116 25.1173 155.807 18.751 149.261 18.751H146.955C147.984 14.0263 146.955 8.79029 143.869 5.08792C139.239 -0.465088 131.733 -0.465088 127.103 5.08792L122.24 10.9207C117.95 16.066 115.947 22.915 116.23 29.6516L108.755 20.6866C108.736 20.6643 108.718 20.642 108.699 20.6197V14.2193C108.699 9.88925 111.626 6.37904 115.236 6.37904C118.168 6.37904 120.649 8.69476 121.478 11.8846C121.723 11.5572 121.977 11.2357 122.24 10.9207L125.473 7.04336C123.415 2.82979 119.601 0 115.236 0ZM143.924 25.1301C143.906 25.1523 143.887 25.1748 143.869 25.1971L136.394 34.1619C141.667 33.8438 147.022 35.942 151.207 40.4571C153.867 39.4634 155.798 36.4872 155.798 32.9703C155.798 28.6403 152.871 25.1301 149.261 25.1301H143.924ZM104.939 62.8699C104.957 62.8474 104.976 62.8249 104.994 62.8026L112.469 53.8376C107.196 54.156 101.841 52.0576 97.6562 47.5429C94.9967 48.5366 93.0658 51.5126 93.0658 55.0297C93.0658 59.3597 95.9926 62.8699 99.6027 62.8699H104.939ZM97.4524 47.32C97.2495 47.0952 97.0495 46.8646 96.8525 46.6284V46.6286C97.0495 46.8649 97.2495 47.0952 97.4524 47.32ZM133.627 88C129.262 88 125.448 85.17 123.39 80.9564L126.623 77.0791C126.886 76.764 127.14 76.4426 127.385 76.1152C128.214 79.305 130.695 81.621 133.627 81.621C137.238 81.621 140.164 78.1108 140.164 73.7807V67.3803C141.696 69.1936 143.537 70.4053 145.483 71.0149V73.7807C145.483 81.6338 140.175 88 133.627 88ZM140.108 9.59846C137.555 6.53679 133.416 6.53679 130.864 9.59846L126.001 15.4312C120.562 21.9552 120.076 32.1708 124.545 39.3536L140.108 20.6864C142.661 17.6245 142.661 12.6603 140.108 9.59846ZM153.112 62.8024C155.666 59.7405 155.666 54.7764 153.112 51.7145L148.25 45.8817C142.811 39.358 134.294 38.7757 128.305 44.1352L143.869 62.8024C146.421 65.8643 150.561 65.8643 153.112 62.8024ZM117.999 78.4011C115.447 81.463 111.308 81.463 108.755 78.4011C106.202 75.3392 106.202 70.3751 108.755 67.3132L124.318 48.646C128.787 55.8288 128.301 66.0446 122.862 72.5683L117.999 78.4011ZM95.7501 25.1971C93.1975 28.259 93.1975 33.2232 95.7501 36.2851L100.613 42.1178C106.052 48.6416 114.569 49.2238 120.558 43.8643L104.994 25.1971C102.442 22.1355 98.3029 22.1355 95.7501 25.1971Z" fill="#3D3A2C"/>
<path d="M0 28.7538H5.81375V50.4221H15.799V56.2922H0V28.7538Z" fill="white"/>
<path d="M26.355 56.8832C24.4061 56.8832 22.698 56.4629 21.2308 55.6226C19.7637 54.7557 18.6251 53.5738 17.8148 52.0768C17.0266 50.5534 16.6324 48.8069 16.6324 46.8369C16.6324 44.8671 17.0266 43.1337 17.8148 41.6367C18.6251 40.1133 19.7637 38.9313 21.2308 38.091C22.698 37.2241 24.4061 36.7908 26.355 36.7908C28.3039 36.7908 30.0118 37.2241 31.479 38.091C32.9461 38.9313 34.0739 40.1133 34.8621 41.6367C35.6723 43.1337 36.0774 44.8671 36.0774 46.8369C36.0774 48.8069 35.6723 50.5534 34.8621 52.0768C34.0739 53.5738 32.9461 54.7557 31.479 55.6226C30.0118 56.4629 28.3039 56.8832 26.355 56.8832ZM26.355 51.4858C27.5155 51.4858 28.4352 51.0787 29.114 50.2646C29.8148 49.424 30.165 48.2816 30.165 46.8369C30.165 45.3925 29.8148 44.2631 29.114 43.4489C28.4352 42.6083 27.5155 42.1883 26.355 42.1883C25.1943 42.1883 24.2637 42.6083 23.5631 43.4489C22.8841 44.2631 22.5448 45.3925 22.5448 46.8369C22.5448 48.2816 22.8841 49.424 23.5631 50.2646C24.2637 51.0787 25.1943 51.4858 26.355 51.4858Z" fill="white"/>
<path d="M46.936 65.3536C45.885 65.3536 44.8229 65.2354 43.7499 64.9991C42.6989 64.7626 41.79 64.4475 41.0237 64.0535V59.2471C42.7535 60.1399 44.7243 60.5865 46.936 60.5865C48.5345 60.5865 49.6842 60.1925 50.3848 59.4046C51.1075 58.6167 51.4688 57.4611 51.4688 55.9376V54.7952C50.8338 55.4518 50.0454 55.9639 49.1038 56.3317C48.1841 56.6995 47.1987 56.8832 46.1476 56.8832C44.4835 56.8832 43.0163 56.4629 41.7462 55.6226C40.4763 54.782 39.4798 53.6001 38.7573 52.0768C38.0565 50.5534 37.7062 48.8069 37.7062 46.8369C37.7062 44.8409 38.0565 43.0811 38.7573 41.5579C39.4579 40.0345 40.4433 38.8656 41.7135 38.0515C42.9834 37.2111 44.4397 36.7908 46.082 36.7908C48.3375 36.7908 50.1986 37.6182 51.6658 39.2729V37.3816H57.2498V54.9922C57.2498 58.2752 56.4066 60.823 54.7206 62.6353C53.0564 64.4475 50.4615 65.3536 46.936 65.3536ZM47.5929 51.5253C48.4907 51.5253 49.29 51.2495 49.9906 50.6979C50.6914 50.1463 51.184 49.411 51.4688 48.4916V45.1824C51.1622 44.2631 50.6585 43.5407 49.9579 43.0154C49.257 42.4641 48.4688 42.1883 47.5929 42.1883C46.4105 42.1883 45.4578 42.6083 44.7353 43.4489C44.0126 44.2631 43.6513 45.3792 43.6513 46.7976C43.6513 48.2421 44.0126 49.3977 44.7353 50.2646C45.4578 51.105 46.4105 51.5253 47.5929 51.5253Z" fill="white"/>
<path d="M68.4389 56.8832C66.4901 56.8832 64.7821 56.4629 63.315 55.6226C61.8478 54.7557 60.709 53.5738 59.8989 52.0768C59.1106 50.5534 58.7164 48.8069 58.7164 46.8369C58.7164 44.8671 59.1106 43.1337 59.8989 41.6367C60.709 40.1133 61.8478 38.9313 63.315 38.091C64.7821 37.2241 66.4901 36.7908 68.4389 36.7908C70.3878 36.7908 72.0958 37.2241 73.5629 38.091C75.0301 38.9313 76.1578 40.1133 76.9462 41.6367C77.7563 43.1337 78.1615 44.8671 78.1615 46.8369C78.1615 48.8069 77.7563 50.5534 76.9462 52.0768C76.1578 53.5738 75.0301 54.7557 73.5629 55.6226C72.0958 56.4629 70.3878 56.8832 68.4389 56.8832ZM68.4389 51.4858C69.5995 51.4858 70.5192 51.0787 71.1981 50.2646C71.8988 49.424 72.2492 48.2816 72.2492 46.8369C72.2492 45.3925 71.8988 44.2631 71.1981 43.4489C70.5192 42.6083 69.5995 42.1883 68.4389 42.1883C67.2784 42.1883 66.3477 42.6083 65.647 43.4489C64.9681 44.2631 64.6287 45.3925 64.6287 46.8369C64.6287 48.2816 64.9681 49.424 65.647 50.2646C66.3477 51.0787 67.2784 51.4858 68.4389 51.4858Z" fill="white"/>
<path d="M170.883 28.7538H176.698V56.2922H170.883V28.7538Z" fill="white"/>
<path d="M179.641 37.3816H185.225V39.2729C186.692 37.6182 188.553 36.7908 190.808 36.7908C192.451 36.7908 193.908 37.2111 195.177 38.0515C196.448 38.8656 197.432 40.0345 198.133 41.5579C198.834 43.0549 199.185 44.8016 199.185 46.7976C199.185 48.7674 198.834 50.5271 198.133 52.0768C197.432 53.6001 196.448 54.782 195.177 55.6226C193.93 56.4629 192.473 56.8832 190.808 56.8832C189.758 56.8832 188.75 56.6862 187.788 56.2922C186.846 55.9246 186.057 55.4123 185.422 54.7557V64.9201H179.641V37.3816ZM189.298 51.4858C190.481 51.4858 191.434 51.0657 192.155 50.2251C192.878 49.3847 193.24 48.2421 193.24 46.7976C193.24 45.353 192.878 44.2238 192.155 43.4094C191.434 42.5691 190.481 42.1488 189.298 42.1488C188.422 42.1488 187.633 42.4246 186.932 42.9761C186.232 43.5014 185.729 44.2238 185.422 45.1429V48.4916C185.729 49.411 186.232 50.1463 186.932 50.6979C187.633 51.2232 188.422 51.4858 189.298 51.4858Z" fill="white"/>
<path d="M207.803 56.8832C206.533 56.8832 205.209 56.7257 203.829 56.4104C202.45 56.1216 201.354 55.7013 200.544 55.1498V50.0676C201.442 50.6979 202.514 51.2232 203.763 51.6435C205.032 52.0374 206.193 52.2344 207.245 52.2344C208.01 52.2344 208.57 52.1686 208.919 52.0374C209.271 51.9061 209.445 51.6435 209.445 51.2495C209.445 50.9342 209.326 50.6847 209.085 50.5009C208.866 50.2909 208.448 50.0806 207.836 49.8706C207.245 49.6343 206.555 49.3847 205.766 49.122C204.431 48.6492 203.381 48.1633 202.614 47.6643C201.847 47.1652 201.278 46.5349 200.905 45.7733C200.533 45.0117 200.347 44.053 200.347 42.8974C200.347 40.8486 201.015 39.3254 202.351 38.3273C203.708 37.3029 205.559 36.7908 207.902 36.7908C209.041 36.7908 210.234 36.9353 211.482 37.2241C212.753 37.5131 213.704 37.8939 214.34 38.3667V43.3702C213.683 42.8449 212.806 42.4113 211.711 42.07C210.639 41.7285 209.631 41.5579 208.689 41.5579C207.946 41.5579 207.365 41.6497 206.949 41.8335C206.533 41.9912 206.326 42.28 206.326 42.7003C206.326 43.0944 206.533 43.3964 206.949 43.6065C207.365 43.8165 208.11 44.0793 209.182 44.3943C209.883 44.6046 210.179 44.6964 210.069 44.6701C211.471 45.1167 212.554 45.6157 213.321 46.1673C214.088 46.7189 214.623 47.3755 214.931 48.1371C215.26 48.8724 215.423 49.818 215.423 50.9737C215.423 52.7859 214.767 54.2304 213.453 55.3073C212.16 56.3579 210.277 56.8832 207.803 56.8832Z" fill="white"/>
<path d="M224.054 56.8835C221.887 56.8835 220.256 56.1611 219.161 54.7167C218.089 53.272 217.552 51.368 217.552 49.0041V37.3819H223.333V48.2161C223.333 50.3961 224.154 51.486 225.796 51.486C226.541 51.486 227.22 51.276 227.832 50.8557C228.445 50.4354 228.949 49.8183 229.343 49.0041V37.3819H235.124V56.2924H229.541V54.2439C228.863 55.1105 228.04 55.7671 227.076 56.2136C226.114 56.6602 225.106 56.8835 224.054 56.8835Z" fill="white"/>
<path d="M238.084 37.3816H243.439V39.4304C244.095 38.59 244.851 37.9465 245.705 37.4999C246.558 37.0271 247.467 36.7908 248.431 36.7908C249.614 36.7908 250.555 37.0008 251.256 37.4211C251.979 37.8414 252.559 38.4718 252.996 39.3121C253.653 38.5243 254.453 37.907 255.395 37.4606C256.337 37.0141 257.29 36.7908 258.252 36.7908C260.332 36.7908 261.811 37.4344 262.687 38.7213C263.562 39.982 264 41.8072 264 44.1973V56.2922H258.482V45.1824C258.482 44.1318 258.318 43.3702 257.989 42.8974C257.661 42.4246 257.113 42.1883 256.348 42.1883C255.362 42.1883 254.562 42.6083 253.949 43.4489C253.971 43.8953 253.982 44.5783 253.982 45.4975V56.2922H248.464V44.9066C248.464 43.9348 248.322 43.2387 248.037 42.8186C247.752 42.3983 247.248 42.1883 246.527 42.1883C245.409 42.1883 244.447 42.9366 243.635 44.4338V56.2922H238.084V37.3816Z" fill="white"/>
</svg>
