<svg width="228" height="88" viewBox="0 0 228 88" fill="none" xmlns="http://www.w3.org/2000/svg">
<path d="M18.7328 83.9764L12.5161 68.5813L21.6395 46.0501L27.4371 60.4083L61.6616 60.3819L51.9503 84.1889L18.7328 83.9764Z" fill="#FFAD64"/>
<path d="M67.7727 45.0957L61.5559 60.4906L43.3465 60.4599L49.1447 46.1022L32.0166 3.73923L51.2928 3.86014L67.7727 45.0957Z" fill="#ADD4D3"/>
<path d="M19.6905 3.65616H32.1241L41.2102 26.2185L29.614 26.2178L12.5179 68.6072L2.95294 44.6792L19.6905 3.65616Z" fill="#FB8351"/>
<path fill-rule="evenodd" clip-rule="evenodd" d="M33.64 0.0919623L33.6029 0H18.2218L0 44.661L12.5083 75.9519L12.5236 75.914L17.2522 87.6238L53.4153 87.8552L66.1151 56.722H66.0305L70.722 45.1044L52.7806 0.212026L33.64 0.0919623ZM45.5384 29.8755H45.6343L36.5927 7.4239L49.8047 7.50672L64.8231 45.0854L60.1223 56.7267L47.8031 56.736L52.0984 46.1002L45.5384 29.8755ZM30.5077 7.31321L36.673 22.5619L28.1369 22.5615L13.523 58.7959L12.5261 61.2578L5.90662 44.6982L21.1597 7.31321H30.5077ZM24.5803 46.02L31.0919 29.8749L39.63 29.8753L46.1909 46.1024L41.8947 56.7407L28.9132 56.7507L24.5803 46.02ZM15.475 68.5961L17.9523 62.4539L21.6362 53.3562L25.9608 64.0663L38.9403 64.0563L38.9193 64.1082L57.1681 64.1391L50.4848 80.523L20.2131 80.3293L15.475 68.5961Z" fill="#333237"/>
<path d="M85.6184 75.1332V58.0142H81.1929V56.0923H91.7397V58.0142H87.3141V75.1332H85.6184Z" fill="white"/>
<path d="M96.4517 75.4297C94.7007 75.4297 93.391 74.8286 92.5225 73.6262C91.6539 72.4239 91.2197 70.571 91.2197 68.0675C91.2197 65.8206 91.592 64.0565 92.3364 62.7752C93.0946 61.4743 94.2872 60.8237 95.9141 60.8237C96.879 60.8237 97.6717 61.08 98.2922 61.5926C98.9263 62.0852 99.3952 62.7752 99.6985 63.6622C100.015 64.5295 100.174 65.5151 100.174 66.6189V69.2503H92.9155C92.9706 70.3147 93.1291 71.1524 93.391 71.7635C93.6668 72.3745 94.0734 72.8179 94.6112 73.094C95.1626 73.3501 95.8865 73.4783 96.7825 73.4783C97.7889 73.4783 98.7127 73.232 99.5536 72.7392V74.6314C99.1263 74.8877 98.6437 75.0849 98.1061 75.2228C97.5821 75.3607 97.0308 75.4297 96.4517 75.4297ZM92.9155 67.506H98.6644V66.3528C98.6644 65.2094 98.4507 64.3324 98.0233 63.7214C97.6098 63.0907 96.9204 62.7752 95.9553 62.7752C94.7835 62.7752 93.9839 63.1694 93.5565 63.9579C93.1291 64.7462 92.9155 65.929 92.9155 67.506Z" fill="white"/>
<path d="M107.292 75.4297C105.582 75.4297 104.314 74.799 103.487 73.5375C102.659 72.2563 102.246 70.4526 102.246 68.1267C102.246 65.6629 102.714 63.8298 103.652 62.6274C104.589 61.4251 105.851 60.8237 107.436 60.8237C108.084 60.8237 108.622 60.8927 109.049 61.0309C109.477 61.149 109.89 61.3461 110.29 61.622V63.5439C109.546 63.0315 108.698 62.7752 107.747 62.7752C106.533 62.7752 105.596 63.1892 104.934 64.0171C104.272 64.8252 103.941 66.1951 103.941 68.1267C103.941 69.9796 104.231 71.3397 104.81 72.207C105.389 73.0546 106.347 73.4783 107.685 73.4783C108.636 73.4783 109.511 73.2222 110.311 72.7096V74.661C109.884 74.9173 109.422 75.1044 108.925 75.2228C108.443 75.3607 107.898 75.4297 107.292 75.4297Z" fill="white"/>
<path d="M112.212 75.1332V55.2053H113.908V62.6267C114.363 62.0945 114.894 61.6608 115.5 61.3257C116.121 60.9905 116.837 60.8229 117.651 60.8229C118.836 60.8229 119.726 61.237 120.319 62.0649C120.911 62.8927 121.208 64.1936 121.208 65.9676V75.1332H119.512V66.0563C119.512 64.8342 119.319 63.9867 118.933 63.5135C118.561 63.0209 117.94 62.7744 117.072 62.7744C116.52 62.7744 115.948 62.9517 115.355 63.3066C114.776 63.6416 114.294 64.0853 113.908 64.6371V75.1332H112.212Z" fill="white"/>
<path d="M127.971 75.4295C126.592 75.4295 125.489 74.9959 124.662 74.1284C123.835 73.2611 123.421 72.0982 123.421 70.6396C123.421 69.2993 123.711 68.1461 124.29 67.1803C124.869 66.2145 125.661 65.357 126.668 64.6081C126.13 63.8394 125.675 63.1199 125.303 62.4497C124.931 61.7796 124.745 60.9713 124.745 60.0252C124.745 58.8425 125.027 57.8471 125.592 57.039C126.172 56.2111 126.985 55.7973 128.033 55.7973C129.053 55.7973 129.846 56.1815 130.411 56.9502C130.976 57.7189 131.259 58.7439 131.259 60.0252C131.259 61.0896 131.059 61.9865 130.659 62.7158C130.259 63.4451 129.687 64.1842 128.943 64.9334L132.375 69.93C132.609 69.2007 132.727 68.2743 132.727 67.1507V66.7369H134.071V67.1507C134.071 67.9196 134.009 68.6685 133.885 69.3978C133.762 70.1272 133.581 70.7579 133.348 71.2901L135.209 73.9807L134.174 75.3112L132.52 72.9755C132.037 73.8229 131.411 74.4439 130.638 74.8382C129.866 75.2324 128.977 75.4295 127.971 75.4295ZM127.888 63.7506C128.536 63.179 129.025 62.637 129.356 62.1244C129.687 61.5922 129.852 60.9221 129.852 60.114C129.852 59.3649 129.708 58.7735 129.418 58.3399C129.142 57.8867 128.681 57.66 128.033 57.66C127.371 57.66 126.888 57.8965 126.585 58.3695C126.296 58.8425 126.151 59.4241 126.151 60.114C126.151 60.7448 126.302 61.3261 126.606 61.8583C126.923 62.3905 127.35 63.0213 127.888 63.7506ZM127.971 73.685C128.77 73.685 129.453 73.5175 130.018 73.1824C130.597 72.8275 131.086 72.3053 131.486 71.6154L127.702 66.0863C126.806 66.6777 126.137 67.3182 125.696 68.0082C125.268 68.6783 125.055 69.5358 125.055 70.5806C125.055 71.6054 125.33 72.3841 125.882 72.9163C126.433 73.4287 127.13 73.685 127.971 73.685Z" fill="#FB8351"/>
<path d="M81.861 42.2714V15.907H87.2441V36.3761H95.5479V42.2714H81.861Z" fill="#FB8351"/>
<path d="M104.208 42.681C101.497 42.681 99.4929 41.8212 98.1948 40.1018C96.916 38.3823 96.2765 35.8715 96.2765 32.5691C96.2765 29.2942 96.9255 26.7969 98.2236 25.0775C99.5216 23.3308 101.516 22.4574 104.208 22.4574C106.919 22.4574 108.923 23.3308 110.221 25.0775C111.538 26.7969 112.197 29.2942 112.197 32.5691C112.197 35.8715 111.548 38.3823 110.25 40.1018C108.952 41.8212 106.938 42.681 104.208 42.681ZM104.208 37.0723C105.086 37.0723 105.716 36.7176 106.098 36.0079C106.499 35.2984 106.699 34.152 106.699 32.5691C106.699 31.0136 106.499 29.8809 106.098 29.1713C105.716 28.4343 105.086 28.0658 104.208 28.0658C103.349 28.0658 102.728 28.4343 102.347 29.1713C101.965 29.8809 101.774 31.0136 101.774 32.5691C101.774 34.152 101.965 35.2984 102.347 36.0079C102.728 36.7176 103.349 37.0723 104.208 37.0723Z" fill="#FB8351"/>
<path d="M120.169 49.4767C119.501 49.4767 118.776 49.4358 117.993 49.3539C117.21 49.2994 116.466 49.1902 115.76 49.0265C115.072 48.8628 114.5 48.6716 114.042 48.4532V43.5406C114.557 43.7863 115.149 43.991 115.817 44.1547C116.504 44.3184 117.201 44.4413 117.907 44.5232C118.613 44.605 119.263 44.6461 119.854 44.6461C120.866 44.6461 121.658 44.5641 122.231 44.4004C122.823 44.264 123.119 44.0047 123.119 43.6226C123.119 43.2951 123.023 43.0767 122.832 42.9675C122.641 42.8856 122.279 42.8447 121.744 42.8447H118.165C116.772 42.8447 115.693 42.5309 114.929 41.9031C114.185 41.2481 113.813 40.2793 113.813 38.9965C113.813 37.1951 114.509 35.9398 115.903 35.2303C115.12 34.657 114.548 33.9338 114.185 33.0604C113.822 32.1872 113.641 31.0817 113.641 29.7444C113.641 27.2335 114.233 25.3913 115.416 24.2177C116.619 23.0443 118.346 22.4574 120.599 22.4574C121.076 22.4574 121.611 22.5119 122.202 22.6211C122.794 22.703 123.224 22.785 123.491 22.8667H128.817L128.702 27.5337H126.898C127.242 28.1614 127.414 28.9257 127.414 29.8264C127.414 31.8187 127.003 33.4016 126.182 34.5752C125.381 35.7214 124.111 36.2947 122.374 36.2947C122.126 36.2947 121.859 36.281 121.572 36.2536C121.286 36.1991 121.019 36.1582 120.771 36.1307C120.351 36.1854 119.988 36.2947 119.683 36.4584C119.377 36.6221 119.224 36.895 119.224 37.2771C119.224 37.55 119.31 37.7412 119.482 37.8502C119.654 37.9321 119.892 37.973 120.198 37.973H123.319C124.712 37.973 125.81 38.4371 126.612 39.365C127.414 40.2929 127.815 41.6575 127.815 43.4588C127.815 45.3692 127.194 46.843 125.953 47.8801C124.712 48.9445 122.785 49.4767 120.169 49.4767ZM120.627 32.078C121.467 32.078 122.05 31.8732 122.374 31.4638C122.699 31.0544 122.861 30.3722 122.861 29.417C122.861 28.4616 122.699 27.7657 122.374 27.3291C122.05 26.8925 121.467 26.6741 120.627 26.6741C119.845 26.6741 119.272 26.8925 118.909 27.3291C118.566 27.7384 118.394 28.4343 118.394 29.417C118.394 30.3449 118.556 31.0272 118.881 31.4638C119.224 31.8732 119.807 32.078 120.627 32.078Z" fill="#FB8351"/>
<path d="M137.596 42.681C134.884 42.681 132.88 41.8212 131.582 40.1018C130.303 38.3823 129.664 35.8715 129.664 32.5691C129.664 29.2942 130.313 26.7969 131.61 25.0775C132.909 23.3308 134.904 22.4574 137.596 22.4574C140.306 22.4574 142.31 23.3308 143.608 25.0775C144.926 26.7969 145.584 29.2942 145.584 32.5691C145.584 35.8715 144.935 38.3823 143.636 40.1018C142.338 41.8212 140.325 42.681 137.596 42.681ZM137.596 37.0723C138.473 37.0723 139.103 36.7176 139.485 36.0079C139.886 35.2984 140.087 34.152 140.087 32.5691C140.087 31.0136 139.886 29.8809 139.485 29.1713C139.103 28.4343 138.473 28.0658 137.596 28.0658C136.737 28.0658 136.116 28.4343 135.733 29.1713C135.352 29.8809 135.161 31.0136 135.161 32.5691C135.161 34.152 135.352 35.2984 135.733 36.0079C136.116 36.7176 136.737 37.0723 137.596 37.0723Z" fill="#FB8351"/>
<path d="M147.95 20.2868V14.7191H153.763V20.2868H147.95ZM148.379 42.2707V28.4745H146.404L146.861 22.866H153.763V42.2707H148.379Z" fill="white"/>
<path d="M156.345 51.1142V22.8667H161.012L161.27 24.4222C161.822 23.7947 162.424 23.317 163.073 22.9896C163.742 22.6347 164.514 22.4574 165.393 22.4574C167.416 22.4574 168.972 23.1941 170.061 24.6679C171.167 26.1144 171.721 28.5844 171.721 32.0778C171.721 35.544 171.139 38.1776 169.974 39.9789C168.81 41.7803 167.206 42.6808 165.163 42.6808C163.809 42.6808 162.664 42.3125 161.727 41.5755V51.1142H156.345ZM163.789 37.0723C164.572 37.0723 165.174 36.6766 165.594 35.8851C166.014 35.0936 166.224 33.8655 166.224 32.2006C166.224 30.5904 166.023 29.4987 165.622 28.9257C165.239 28.3524 164.648 28.0658 163.846 28.0658C163.045 28.0658 162.339 28.448 161.727 29.2122V36.0899C162.034 36.4173 162.339 36.6629 162.644 36.8266C162.949 36.9903 163.331 37.0723 163.789 37.0723Z" fill="white"/>
<path d="M178.894 42.6808C177.73 42.6808 176.633 42.5582 175.602 42.3125C174.59 42.0941 173.789 41.8076 173.196 41.4527V35.9259C173.865 36.3628 174.657 36.7038 175.573 36.9495C176.509 37.1951 177.301 37.318 177.949 37.318C178.637 37.318 179.152 37.2907 179.496 37.236C179.859 37.1815 180.039 36.9495 180.039 36.5401C180.039 36.0762 179.725 35.7214 179.095 35.4757C178.466 35.23 177.673 34.8752 176.719 34.4113C175.477 33.7835 174.551 33.0468 173.941 32.2006C173.33 31.3546 173.025 30.1265 173.025 28.5161C173.025 26.5785 173.559 25.0911 174.629 24.054C175.698 22.9896 177.377 22.4574 179.667 22.4574C180.546 22.4574 181.452 22.5527 182.387 22.7439C183.322 22.9348 184.058 23.1533 184.593 23.3989V28.8028C184.019 28.448 183.389 28.1887 182.703 28.025C182.035 27.8611 181.424 27.7793 180.87 27.7793C180.26 27.7793 179.715 27.8202 179.238 27.9022C178.76 27.9839 178.522 28.2159 178.522 28.598C178.522 29.0347 178.79 29.3487 179.325 29.5396C179.877 29.7308 180.613 30.0309 181.528 30.4403C182.56 30.8769 183.361 31.3546 183.934 31.8732C184.526 32.3917 184.936 33.0193 185.166 33.7563C185.413 34.4933 185.538 35.4074 185.538 36.4992C185.538 38.4643 184.974 39.9926 183.848 41.0842C182.74 42.1486 181.089 42.6808 178.894 42.6808Z" fill="white"/>
<path d="M192.475 42.6801C190.891 42.6801 189.651 42.0389 188.753 40.7561C187.857 39.4733 187.408 37.5902 187.408 35.1065V22.8661H192.791V34.4926C192.791 36.1846 193.392 37.0308 194.594 37.0308C195.033 37.0308 195.464 36.8943 195.883 36.6214C196.303 36.3485 196.637 36.0072 196.885 35.5979V22.8661H202.268V42.2707H197.229L197.086 40.797C196.552 41.3428 195.892 41.7933 195.111 42.1479C194.347 42.5028 193.468 42.6801 192.475 42.6801Z" fill="white"/>
<path d="M204.832 42.2714V22.8667H209.814L209.957 24.4222C210.549 23.8492 211.207 23.3853 211.933 23.0304C212.677 22.6483 213.489 22.4574 214.367 22.4574C215.244 22.4574 215.932 22.6347 216.428 22.9896C216.925 23.3442 217.326 23.8628 217.631 24.5451C218.241 23.9175 218.929 23.4125 219.693 23.0304C220.475 22.6483 221.392 22.4574 222.442 22.4574C224.026 22.4574 225.19 23.0577 225.935 24.2585C226.679 25.4321 227.051 27.2335 227.051 29.6624V42.2714H221.754V30.5631C221.754 29.6897 221.63 29.0757 221.381 28.7209C221.134 28.3388 220.723 28.1478 220.15 28.1478C219.406 28.1478 218.795 28.5299 218.319 29.2939C218.356 29.6488 218.375 29.9901 218.375 30.3175C218.375 30.6176 218.375 30.9589 218.375 31.341V42.2714H213.393V30.4403C213.393 29.6488 213.298 29.0757 213.107 28.7209C212.915 28.3388 212.553 28.1478 212.019 28.1478C211.656 28.1478 211.303 28.2843 210.959 28.5572C210.615 28.8301 210.31 29.1575 210.043 29.5396V42.2714H204.832Z" fill="white"/>
<path d="M143.976 75.674C142.542 75.674 141.349 75.2896 140.398 74.5209C139.461 73.7324 138.758 72.6384 138.289 71.2389C137.82 69.8199 137.587 68.1641 137.587 66.2718C137.587 64.2022 137.807 62.3985 138.248 60.8611C138.688 59.3237 139.378 58.141 140.316 57.3131C141.254 56.4656 142.466 56.0418 143.955 56.0418C144.728 56.0418 145.423 56.1205 146.044 56.2783C146.678 56.436 147.271 56.6527 147.823 56.9288V59.0576C147.271 58.7619 146.685 58.5352 146.065 58.3775C145.444 58.2001 144.79 58.1114 144.101 58.1114C142.901 58.1114 141.949 58.4367 141.246 59.0872C140.544 59.7376 140.04 60.6738 139.737 61.8959C139.433 63.1181 139.281 64.5767 139.281 66.2718C139.281 68.6173 139.668 70.4308 140.439 71.7122C141.226 72.9737 142.46 73.6044 144.141 73.6044C144.762 73.6044 145.389 73.5352 146.023 73.3973C146.671 73.2594 147.271 73.0426 147.823 72.747V74.9053C147.284 75.1418 146.699 75.329 146.065 75.4671C145.444 75.6051 144.748 75.674 143.976 75.674Z" fill="white"/>
<path d="M154.786 75.6732C153.076 75.6732 151.829 75.0522 151.043 73.8105C150.271 72.549 149.886 70.7355 149.886 68.3702C149.886 66.0245 150.279 64.221 151.063 62.9595C151.85 61.698 153.091 61.0672 154.786 61.0672C156.482 61.0672 157.723 61.698 158.508 62.9595C159.294 64.221 159.687 66.0245 159.687 68.3702C159.687 70.7355 159.302 72.549 158.529 73.8105C157.758 75.0522 156.51 75.6732 154.786 75.6732ZM154.786 73.6036C155.958 73.6036 156.785 73.1895 157.268 72.3617C157.75 71.5142 157.991 70.1837 157.991 68.3702C157.991 66.5567 157.744 65.2362 157.247 64.4083C156.765 63.5606 155.944 63.1368 154.786 63.1368C153.629 63.1368 152.801 63.5606 152.305 64.4083C151.823 65.2362 151.582 66.5567 151.582 68.3702C151.582 70.1837 151.823 71.5142 152.305 72.3617C152.788 73.1895 153.614 73.6036 154.786 73.6036Z" fill="white"/>
<path d="M161.76 75.3781V73.3381H163.291V75.3781H161.76Z" fill="white"/>
</svg>
