<svg width="308" height="88" viewBox="0 0 308 88" fill="none" xmlns="http://www.w3.org/2000/svg">
<path d="M44.4498 72.8321L3.26397 32.2135C-0.909712 28.0975 0.509067 19.5274 5.71354 17.512L49.4867 0.526096C50.4139 0.047729 51.4076 -0.107555 52.3852 0.0731354C53.3628 0.253826 54.2962 0.765276 55.1079 1.56504C55.9196 2.3648 56.5862 3.42981 57.0523 4.67168C57.5184 5.91354 57.7707 7.29645 57.7881 8.70561L55.1939 66.3069C54.8863 73.1439 48.6235 76.9481 44.4498 72.8321Z" fill="#E9327C"/>
<path d="M31.3869 82.8589L7.12307 15.0169C6.56843 13.4648 6.32436 11.724 6.41778 9.9862C6.5112 8.24844 6.93848 6.58133 7.65249 5.16871C8.3665 3.75609 9.33952 2.65285 10.4642 1.98064C11.5889 1.30842 12.8216 1.09337 14.0264 1.35918L58.9933 11.2816C60.0286 11.5101 61.0112 12.0866 61.8602 12.9638C62.7093 13.841 63.4006 14.9938 63.8773 16.3275C64.354 17.6611 64.6025 19.1375 64.6023 20.6352C64.6022 22.1329 64.3534 23.6091 63.8764 24.9426L43.1618 82.8622C42.6056 84.4098 41.7617 85.7081 40.7229 86.6145C39.6841 87.5209 38.4906 88.0003 37.2736 88C36.0567 87.9996 34.8633 87.5196 33.8248 86.6126C32.7862 85.7056 31.9427 84.4068 31.3869 82.8589V82.8589Z" fill="#1DACE3"/>
<path d="M57.6779 10.9902L35.2622 6.04376L7.74068 16.7277L18.7259 47.4534L44.4498 72.8322C45.0173 73.3858 45.6415 73.8099 46.3001 74.0893L56.0709 46.7707L57.6779 10.9902Z" fill="#3A68B8"/>
<path d="M171.219 18.9199C171.219 17.7286 171.466 16.5641 171.929 15.5736C172.392 14.5832 173.05 13.8112 173.819 13.3553C174.589 12.8994 175.436 12.7802 176.253 13.0126C177.071 13.245 177.821 13.8186 178.41 14.6609C178.999 15.5033 179.401 16.5765 179.563 17.7448C179.726 18.9132 179.642 20.1242 179.323 21.2248C179.005 22.3253 178.465 23.266 177.772 23.9278C177.079 24.5896 176.265 24.9429 175.431 24.9429C174.318 24.9267 173.253 24.2869 172.465 23.1608C171.678 22.0348 171.23 20.5122 171.219 18.9199V18.9199ZM171.921 27.8871H178.944V61.347H171.921V27.8871Z" fill="white"/>
<path d="M209.271 44.6173C209.352 46.829 209.127 49.0418 208.609 51.1287C208.09 53.2155 207.288 55.1352 206.248 56.7772C205.209 58.4193 203.952 59.7513 202.552 60.6967C201.151 61.6421 199.633 62.1822 198.086 62.286C196.784 62.3873 195.483 62.0735 194.277 61.3673C193.071 60.6611 191.989 59.5801 191.111 58.2028V74.7325H184.091V27.8874H191.111V31.0318C191.99 29.6551 193.071 28.5748 194.277 27.8692C195.484 27.1635 196.784 26.8502 198.086 26.9519C199.633 27.0553 201.151 27.595 202.551 28.5401C203.952 29.4851 205.209 30.8169 206.248 32.4586C207.288 34.1004 208.09 36.0198 208.608 38.1065C209.127 40.1931 209.352 42.4059 209.271 44.6173ZM202.25 44.6173C202.223 43.0508 201.873 41.5306 201.244 40.2471C200.615 38.9636 199.735 37.9738 198.715 37.4015C197.695 36.8293 196.579 36.7 195.507 37.0299C194.436 37.3598 193.456 38.1342 192.691 39.2561C191.926 40.3781 191.409 41.7978 191.205 43.3376C191.002 44.8774 191.12 46.4689 191.546 47.9128C191.972 49.3567 192.686 50.589 193.6 51.4554C194.513 52.3218 195.585 52.7839 196.681 52.7837C197.433 52.8322 198.185 52.6525 198.885 52.2565C199.586 51.8605 200.22 51.257 200.746 50.4858C201.272 49.7146 201.678 48.793 201.937 47.7816C202.196 46.7702 202.303 45.6918 202.25 44.6173V44.6173Z" fill="white"/>
<path d="M230.941 51.3034C230.941 59.0005 226.26 62.2795 221.205 62.2795C219.162 62.5437 217.112 61.9257 215.318 60.5056C213.524 59.0854 212.069 56.9283 211.142 54.3133L217.226 49.3636C217.473 50.5723 218.004 51.623 218.728 52.34C219.452 53.0569 220.326 53.3966 221.205 53.3024C222.89 53.3024 223.73 52.5638 223.73 51.2279C223.73 47.5452 212.217 49.4883 212.217 37.9083C212.217 30.615 216.521 26.9356 221.4 26.9356C223.23 26.8535 225.041 27.4743 226.646 28.7333C228.251 29.9924 229.591 31.8436 230.525 34.0943L224.536 38.7125C224.274 37.8342 223.837 37.0856 223.279 36.5603C222.721 36.0349 222.068 35.756 221.4 35.7584C220.183 35.7584 219.435 36.4149 219.435 37.6326C219.428 41.4729 230.941 38.9291 230.941 51.3034Z" fill="white"/>
<path d="M256.6 27.8868V61.3466H249.58V58.1956C248.769 59.5837 247.739 60.6774 246.576 61.3871C245.412 62.0968 244.147 62.4024 242.885 62.2788C238.158 62.2788 234.134 57.4604 234.134 48.4242V27.8868H241.154V46.9603C241.095 47.7578 241.158 48.5641 241.34 49.3231C241.521 50.0821 241.815 50.7755 242.203 51.3551C242.591 51.9347 243.062 52.3865 243.584 52.679C244.107 52.9715 244.667 53.0978 245.227 53.049C247.801 53.049 249.589 50.9089 249.589 46.1561V27.8868H256.6Z" fill="white"/>
<path d="M296.84 40.7989V61.3462H289.82V41.672C289.82 38.3273 288.695 36.184 286.45 36.184C284.108 36.184 282.8 38.5276 282.8 42.4762V61.3462H275.777V41.672C275.777 38.3273 274.654 36.184 272.407 36.184C270.067 36.184 268.756 38.5276 268.756 42.4762V61.3462H261.736V27.8863H268.768V30.952C269.495 29.5869 270.451 28.5043 271.546 27.8031C272.642 27.1018 273.843 26.8043 275.04 26.9377C276.242 26.8537 277.438 27.2162 278.513 27.9899C279.587 28.7636 280.503 29.922 281.172 31.3524C281.95 29.8558 282.981 28.6658 284.168 27.8938C285.355 27.1217 286.66 26.7928 287.96 26.9377C293.332 26.9509 296.84 32.4356 296.84 40.7989Z" fill="white"/>
<path d="M302.789 27.6799C305.667 27.6799 308 24.3441 308 20.2291C308 16.1141 305.667 12.7782 302.789 12.7782C299.91 12.7782 297.577 16.1141 297.577 20.2291C297.577 24.3441 299.91 27.6799 302.789 27.6799Z" fill="white"/>
<path d="M75.3668 12.4962H82.3895V61.3468H75.3668V12.4962ZM86.3657 44.6169C86.358 41.1089 87.0785 37.6766 88.436 34.7545C89.7935 31.8324 91.7269 29.5519 93.9915 28.2019C96.2561 26.8518 98.7499 26.4928 101.157 27.1704C103.565 27.848 105.777 29.5317 107.515 32.0082C109.253 34.4848 110.437 37.6429 110.919 41.0826C111.4 44.5223 111.157 48.089 110.22 51.331C109.283 54.573 107.694 57.3444 105.654 59.2945C103.615 61.2446 101.216 62.2855 98.7628 62.2855C97.1332 62.3105 95.5165 61.8709 94.0071 60.9925C92.4977 60.1141 91.1259 58.8144 89.9717 57.1695C88.8176 55.5246 87.9043 53.5673 87.2851 51.4121C86.666 49.2568 86.3534 46.9468 86.3657 44.6169V44.6169ZM104.153 44.6169C104.126 43.1037 103.787 41.6357 103.179 40.3966C102.571 39.1574 101.72 38.2021 100.735 37.6501C99.7488 37.0981 98.6711 36.974 97.6362 37.2932C96.6013 37.6124 95.6551 38.3608 94.9162 39.4448C94.1772 40.5288 93.6782 41.9002 93.4816 43.3876C93.285 44.875 93.3995 46.4122 93.8107 47.807C94.222 49.2018 94.9118 50.3923 95.7938 51.2295C96.6758 52.0668 97.7109 52.5136 98.7697 52.5141C99.4946 52.5436 100.216 52.3581 100.888 51.9692C101.561 51.5803 102.169 50.9965 102.676 50.2545C103.183 49.5125 103.576 48.6285 103.832 47.6582C104.088 46.6879 104.2 45.6524 104.162 44.6169H104.153ZM139.161 27.8771V59.6663C139.161 70.9082 133.029 75.6577 126.805 75.6577C124.615 75.8941 122.421 75.2636 120.464 73.8352C118.507 72.4069 116.863 70.2359 115.712 67.5602L121.702 62.6072C122.185 64.0037 122.956 65.1558 123.909 65.9096C124.863 66.6633 125.955 66.9827 127.04 66.825C127.732 66.9601 128.436 66.8713 129.101 66.5652C129.766 66.2591 130.374 65.7434 130.881 65.0563C131.387 64.3692 131.78 63.5282 132.029 62.5953C132.278 61.6624 132.377 60.6614 132.32 59.6663V56.5875C131.497 58.0253 130.451 59.1676 129.264 59.9229C128.077 60.6781 126.783 61.0253 125.485 60.9365C122.396 60.7992 119.466 58.9483 117.315 55.7757C115.163 52.603 113.96 48.3578 113.96 43.9391C113.96 39.5204 115.163 35.2751 117.315 32.1025C119.466 28.9298 122.396 27.0789 125.485 26.9416C126.783 26.8528 128.077 27.2 129.264 27.9553C130.451 28.7105 131.497 29.8529 132.32 31.2907V27.8771H139.161ZM132.329 43.9374C132.375 42.3213 132.082 40.7224 131.488 39.3462C130.894 37.97 130.025 36.8795 128.993 36.2148C127.962 35.5501 126.815 35.3417 125.7 35.6163C124.586 35.891 123.554 36.6361 122.737 37.7559C121.921 38.8758 121.358 40.3191 121.12 41.9004C120.882 43.4816 120.98 45.1285 121.402 46.6293C121.824 48.13 122.55 49.4161 123.487 50.3221C124.424 51.228 125.529 51.7125 126.661 51.7132C127.398 51.7874 128.139 51.64 128.834 51.2805C129.529 50.921 130.165 50.3574 130.698 49.6259C131.232 48.8944 131.653 48.0113 131.934 47.0333C132.215 46.0553 132.349 45.0041 132.329 43.9473V43.9374ZM143.137 44.5939C143.13 41.086 143.85 37.6536 145.208 34.7315C146.565 31.8094 148.499 29.529 150.763 28.1789C153.028 26.8288 155.522 26.4698 157.929 27.1474C160.336 27.825 162.549 29.5087 164.287 31.9853C166.024 34.4618 167.209 37.6199 167.69 41.0596C168.172 44.4994 167.929 48.066 166.992 51.308C166.054 54.55 164.465 57.3215 162.426 59.2715C160.386 61.2216 157.988 62.2625 155.534 62.2626C153.906 62.2874 152.291 61.8486 150.783 60.9716C149.274 60.0946 147.903 58.797 146.749 57.1546C145.595 55.5121 144.682 53.5576 144.061 51.405C143.441 49.2524 143.127 46.9448 143.137 44.6169V44.5939ZM160.925 44.5939C160.898 43.0798 160.559 41.6107 159.951 40.3705C159.343 39.1303 158.492 38.174 157.506 37.6214C156.52 37.0688 155.441 36.9443 154.406 37.2635C153.37 37.5828 152.423 38.3316 151.684 39.4162C150.944 40.5009 150.445 41.8733 150.249 43.3616C150.052 44.8499 150.167 46.388 150.578 47.7836C150.99 49.1791 151.681 50.3701 152.563 51.2074C153.446 52.0447 154.482 52.4913 155.541 52.4911C156.264 52.5186 156.983 52.3323 157.653 51.944C158.323 51.5557 158.93 50.9736 159.435 50.2344C159.941 49.4951 160.334 48.6146 160.59 47.6479C160.847 46.6813 160.961 45.6494 160.925 44.6169V44.5939Z" fill="white"/>
</svg>
